0
SECTION
2
HEADER
9
$INSUNITS
70
4
9
$ACADVER
1
AC1014
9
$HANDSEED
5
FFFF
0
ENDSEC
0
SECTION
2
TABLES
0
TABLE
2
VPORT
5
8
100
AcDbSymbolTable
0
ENDTAB
0
TABLE
2
LTYPE
5
5
100
AcDbSymbolTable
0
LTYPE
5
14
100
AcDbSymbolTableRecord
100
AcDbLinetypeTableRecord
2
BYBLOCK
70
0
0
LTYPE
5
15
100
AcDbSymbolTableRecord
100
AcDbLinetypeTableRecord
2
BYLAYER
70
0
0
LTYPE
5
16
100
AcDbSymbolTableRecord
100
AcDbLinetypeTableRecord
2
DASHED
70
0
3
Dashed __ __ __ __ __ __ __ __ __ __ __ __ __ _
72
65
73
2
40
0.75
49
0.5
74
0
49
-0.25
74
0
0
ENDTAB
0
TABLE
2
LAYER
5
2
100
AcDbSymbolTable
70
2
0
LAYER
5
50
100
AcDbSymbolTableRecord
100
AcDbLayerTableRecord
2
0
70
0
62
7
6
CONTINUOUS
0
ENDTAB
0
TABLE
2
STYLE
5
3
100
AcDbSymbolTable
70
1
0
STYLE
5
11
100
AcDbSymbolTableRecord
100
AcDbTextStyleTableRecord
2
STANDARD
70
0
0
ENDTAB
0
TABLE
2
VIEW
5
6
100
AcDbSymbolTable
70
0
0
ENDTAB
0
TABLE
2
UCS
5
7
100
AcDbSymbolTable
70
0
0
ENDTAB
0
TABLE
2
APPID
5
9
100
AcDbSymbolTable
70
2
0
APPID
5
12
100
AcDbSymbolTableRecord
100
AcDbRegAppTableRecord
2
ACAD
70
0
0
ENDTAB
0
TABLE
2
DIMSTYLE
5
A
100
AcDbSymbolTable
70
1
0
ENDTAB
0
TABLE
2
BLOCK_RECORD
5
1
100
AcDbSymbolTable
70
1
0
BLOCK_RECORD
5
1F
100
AcDbSymbolTableRecord
100
AcDbBlockTableRecord
2
*MODEL_SPACE
0
BLOCK_RECORD
5
1B
100
AcDbSymbolTableRecord
100
AcDbBlockTableRecord
2
*PAPER_SPACE
0
ENDTAB
0
ENDSEC
0
SECTION
2
BLOCKS
0
BLOCK
5
20
100
AcDbEntity
100
AcDbBlockBegin
2
*MODEL_SPACE
0
ENDBLK
5
21
100
AcDbEntity
100
AcDbBlockEnd
0
BLOCK
5
1C
100
AcDbEntity
100
AcDbBlockBegin
2
*PAPER_SPACE
0
ENDBLK
5
1D
100
AcDbEntity
100
AcDbBlockEnd
0
ENDSEC
0
SECTION
2
ENTITIES
0
LWPOLYLINE
5
100
100
AcDbEntity
8
0
100
AcDbPolyline
90
10
70
1
43
0.0
10
40.57500000000001
20
-21.505000000000013
10
40.57500000000001
20
-8.9050000000000207
10
40.57500000000001
20
-21.505000000000013
10
40.57500000000001
20
-8.9050000000000207
42
0.41421356237309559
10
39.975000000000009
20
-8.3050000000000175
10
27.375000000000004
20
-8.3050000000000175
42
0.41421356237309503
10
26.775000000000002
20
-8.9050000000000189
10
26.775000000000002
20
-21.505000000000013
42
0.41421356237309503
10
27.375000000000007
20
-22.105000000000015
10
39.975000000000009
20
-22.105000000000025
42
0.41421356237310153
0
LWPOLYLINE
5
101
100
AcDbEntity
8
0
100
AcDbPolyline
90
8
70
1
43
0.0
10
39.975000000000009
20
-39.105000000000032
42
0.41421356237309503
10
40.57500000000001
20
-38.505000000000031
10
40.57500000000001
20
-25.905000000000022
42
0.41421356237309503
10
39.975000000000009
20
-25.305000000000017
10
27.375000000000004
20
-25.305000000000017
42
0.41421356237309503
10
26.775000000000002
20
-25.905000000000022
10
26.775000000000002
20
-38.505000000000024
42
0.41421356237309503
10
27.375000000000007
20
-39.105000000000018
0
LWPOLYLINE
5
102
100
AcDbEntity
8
0
100
AcDbPolyline
90
8
70
1
43
0.0
10
39.975000000000009
20
-56.105000000000025
42
0.41421356237309503
10
40.57500000000001
20
-55.505000000000031
10
40.57500000000001
20
-42.905000000000015
42
0.41421356237309503
10
39.975000000000009
20
-42.305000000000021
10
27.375000000000004
20
-42.305000000000021
42
0.41421356237309503
10
26.775000000000002
20
-42.905000000000015
10
26.775000000000002
20
-55.505000000000031
42
0.41421356237309503
10
27.375000000000007
20
-56.105000000000032
0
LWPOLYLINE
5
103
100
AcDbEntity
8
0
100
AcDbPolyline
90
8
70
1
43
0.0
10
57.975000000000009
20
-39.105000000000032
42
0.41421356237309503
10
58.57500000000001
20
-38.505000000000031
10
58.57500000000001
20
-25.905000000000022
42
0.41421356237309503
10
57.975000000000009
20
-25.305000000000017
10
45.375000000000007
20
-25.305000000000017
42
0.41421356237309503
10
44.77500000000002
20
-25.905000000000022
10
44.77500000000002
20
-38.505000000000024
42
0.41421356237309503
10
45.375000000000021
20
-39.105000000000025
0
LWPOLYLINE
5
104
100
AcDbEntity
8
0
100
AcDbPolyline
90
8
70
1
43
0.0
10
75.975000000000023
20
-39.105000000000032
42
0.41421356237309503
10
76.575000000000017
20
-38.505000000000031
10
76.575000000000003
20
-25.905000000000022
42
0.41421356237309503
10
75.975000000000023
20
-25.305000000000017
10
63.375
20
-25.305000000000017
42
0.41421356237309503
10
62.775000000000027
20
-25.905000000000022
10
62.77500000000002
20
-38.505000000000024
42
0.41421356237309503
10
63.375000000000021
20
-39.105000000000025
0
LWPOLYLINE
5
105
100
AcDbEntity
8
0
100
AcDbPolyline
90
8
70
1
43
0.0
10
93.975000000000023
20
-39.105000000000032
42
0.41421356237309503
10
94.575000000000031
20
-38.505000000000031
10
94.575000000000017
20
-25.905000000000022
42
0.41421356237309503
10
93.975000000000023
20
-25.305000000000017
10
81.375000000000014
20
-25.305000000000017
42
0.41421356237309503
10
80.775000000000006
20
-25.905000000000022
10
80.77500000000002
20
-38.505000000000024
42
0.41421356237309503
10
81.375000000000014
20
-39.105000000000004
0
LWPOLYLINE
5
106
100
AcDbEntity
8
0
100
AcDbPolyline
90
2
70
1
43
0.0
10
39.975000000000009
20
-22.105000000000025
42
0.41421356237310153
10
40.57500000000001
20
-21.505000000000013
42
-0.41421356237310153
0
ARC
5
107
100
AcDbEntity
8
0
100
AcDbCircle
10
27.375000000000007
20
-21.505000000000013
30
0
40
0.60000000000000497
210
0
220
0
230
1
100
AcDbArc
50
180
51
270
0
LWPOLYLINE
5
108
100
AcDbEntity
8
0
100
AcDbPolyline
90
2
70
1
43
0.0
10
27.375000000000007
20
-22.105000000000015
10
39.975000000000009
20
-22.105000000000025
0
LINE
5
109
100
AcDbEntity
8
0
100
AcDbLine
10
39.975000000000009
20
-8.3050000000000175
30
0
11
27.375000000000004
21
-8.3050000000000175
31
0
0
LWPOLYLINE
5
110
100
AcDbEntity
8
0
100
AcDbPolyline
90
2
70
1
43
0.0
10
40.57500000000001
20
-8.9050000000000207
42
0.41421356237309559
10
39.975000000000009
20
-8.3050000000000139
42
-0.41421356237309559
0
LINE
5
111
100
AcDbEntity
8
0
100
AcDbLine
10
26.775000000000002
20
-8.9050000000000189
30
0
11
26.775000000000002
21
-21.505000000000013
31
0
0
ARC
5
112
100
AcDbEntity
8
0
100
AcDbCircle
10
27.375000000000004
20
-8.9050000000000189
30
0
40
0.60000000000000164
210
0
220
-0
230
1
100
AcDbArc
50
90
51
180
0
LWPOLYLINE
5
113
100
AcDbEntity
8
0
100
AcDbPolyline
90
8
70
1
43
0.0
10
57.975000000000009
20
-56.105000000000025
42
0.41421356237309503
10
58.57500000000001
20
-55.505000000000031
10
58.57500000000001
20
-42.905000000000015
42
0.41421356237309503
10
57.975000000000009
20
-42.305000000000021
10
45.375000000000007
20
-42.305000000000021
42
0.41421356237309503
10
44.77500000000002
20
-42.905000000000015
10
44.77500000000002
20
-55.505000000000031
42
0.41421356237309503
10
45.375000000000021
20
-56.105000000000032
0
LWPOLYLINE
5
114
100
AcDbEntity
8
0
100
AcDbPolyline
90
8
70
1
43
0.0
10
75.975000000000023
20
-56.105000000000025
42
0.41421356237309503
10
76.575000000000017
20
-55.505000000000031
10
76.575000000000003
20
-42.905000000000015
42
0.41421356237309503
10
75.975000000000023
20
-42.305000000000021
10
63.375
20
-42.305000000000021
42
0.41421356237309503
10
62.775000000000027
20
-42.905000000000015
10
62.77500000000002
20
-55.505000000000031
42
0.41421356237309503
10
63.375000000000021
20
-56.105000000000032
0
LWPOLYLINE
5
115
100
AcDbEntity
8
0
100
AcDbPolyline
90
8
70
1
43
0.0
10
93.974999999999781
20
-56.105000000000025
42
0.41421356237309503
10
94.57499999999979
20
-55.505000000000031
10
94.574999999999804
20
-42.905000000000015
42
0.41421356237309503
10
93.974999999999781
20
-42.305000000000021
10
81.374999999999801
20
-42.305000000000021
42
0.41421356237309503
10
80.774999999999778
20
-42.905000000000015
10
80.774999999999793
20
-55.505000000000031
42
0.41421356237309503
10
81.374999999999801
20
-56.105000000000032
0
LWPOLYLINE
5
116
100
AcDbEntity
8
0
100
AcDbPolyline
90
8
70
1
43
0.0
10
93.975000000000023
20
-22.105000000000025
42
0.41421356237309503
10
94.575000000000031
20
-21.505000000000027
10
94.575000000000017
20
-8.9050000000000207
42
0.41421356237309559
10
93.975000000000023
20
-8.3050000000000175
10
81.375000000000014
20
-8.3050000000000175
42
0.41421356237309503
10
80.775000000000006
20
-8.9050000000000189
10
80.77500000000002
20
-21.505000000000013
42
0.41421356237309503
10
81.375000000000014
20
-22.105
0
ARC
5
117
100
AcDbEntity
8
0
100
AcDbCircle
10
27.375000000000007
20
-21.505000000000013
30
0
40
0.60000000000000497
210
0
220
0
230
1
100
AcDbArc
50
180
51
270
0
LINE
5
118
100
AcDbEntity
8
0
100
AcDbLine
10
39.975000000000009
20
-8.3050000000000175
30
0
11
27.375000000000004
21
-8.3050000000000175
31
0
0
LINE
5
119
100
AcDbEntity
8
0
100
AcDbLine
10
26.775000000000002
20
-8.9050000000000189
30
0
11
26.775000000000002
21
-21.505000000000013
31
0
0
ARC
5
120
100
AcDbEntity
8
0
100
AcDbCircle
10
27.375000000000004
20
-8.9050000000000189
30
0
40
0.60000000000000164
210
0
220
-0
230
1
100
AcDbArc
50
90
51
180
0
LWPOLYLINE
5
121
100
AcDbEntity
8
0
100
AcDbPolyline
90
8
70
1
43
0.0
10
57.975000000000009
20
-73.105000000000018
42
0.41421356237309503
10
58.57500000000001
20
-72.505000000000024
10
58.57500000000001
20
-59.905000000000037
42
0.41421356237309503
10
57.975000000000009
20
-59.305000000000021
10
45.375000000000007
20
-59.305000000000021
42
0.41421356237309503
10
44.77500000000002
20
-59.905000000000037
10
44.77500000000002
20
-72.505000000000024
42
0.41421356237309503
10
45.375000000000021
20
-73.105000000000032
0
LWPOLYLINE
5
122
100
AcDbEntity
8
0
100
AcDbPolyline
90
8
70
1
43
0.0
10
75.975000000000023
20
-73.105000000000018
42
0.41421356237309503
10
76.575000000000017
20
-72.505000000000024
10
76.575000000000003
20
-59.905000000000037
42
0.41421356237309503
10
75.975000000000023
20
-59.305000000000021
10
63.375
20
-59.305000000000021
42
0.41421356237309503
10
62.775000000000027
20
-59.905000000000037
10
62.77500000000002
20
-72.505000000000024
42
0.41421356237309503
10
63.375000000000021
20
-73.105000000000032
0
LWPOLYLINE
5
123
100
AcDbEntity
8
0
100
AcDbPolyline
90
4
70
1
43
0.0
10
39.925001716557887
20
-73.555003773197541
10
27.425001122839745
20
-73.555003773197541
10
27.425001122839745
20
-58.855003074985
10
39.925001716557887
20
-58.855003074985
0
LWPOLYLINE
5
124
100
AcDbEntity
8
0
100
AcDbPolyline
90
4
70
1
43
0.0
10
93.925001716557901
20
-73.555003773197541
10
81.42500112283976
20
-73.555003773197541
10
81.42500112283976
20
-58.855003074985
10
93.925001716557901
20
-58.855003074985
0
LWPOLYLINE
5
125
100
AcDbEntity
8
0
100
AcDbPolyline
90
4
70
1
43
0.0
10
98.250000000000043
20
-77.555003773197541
10
98.250000000000043
20
0
10
22.180000000000035
20
0
10
22.180000000000032
20
-77.555003773197541
0
LINE
5
126
100
AcDbEntity
8
0
100
AcDbLine
10
98.250000000000043
20
-77.555003773197541
30
0
11
98.250000000000043
21
0
31
0
0
LINE
5
127
100
AcDbEntity
8
0
100
AcDbLine
10
22.180000000000035
20
0
30
0
11
22.180000000000032
21
-77.555003773197541
31
0
0
ENDSEC
0
SECTION
2
OBJECTS
0
DICTIONARY
5
C
100
AcDbDictionary
3
ACAD_GROUP
350
D
3
ACAD_MLINESTYLE
350
17
0
DICTIONARY
5
D
100
AcDbDictionary
0
DICTIONARY
5
1A
330
C
100
AcDbDictionary
0
DICTIONARY
5
17
100
AcDbDictionary
0
ENDSEC
0
EOF
